<svg width="300" height="192" viewBox="0 0 300 192" fill="none" xmlns="http://www.w3.org/2000/svg">
<g clip-path="url(#clip0)">
<path d="M242.578 113.207C239.821 114.234 234.979 115.079 229.374 115.758C214.136 117.608 193.255 118.264 193.255 118.264C193.255 118.264 85.9083 127.268 5.45436 93.7796C5.45436 93.7796 -6.24787 87.575 4.60781 79.2242C6.27943 77.9764 8.05655 76.88 9.91854 75.9478L10.0512 75.8137C11.286 74.6595 12.6204 73.6193 14.0385 72.7057C18.2063 69.9801 25.244 66.7494 33.8112 68.2135L245.117 102.778C245.117 102.778 252.835 109.374 242.578 113.207Z" fill="#3F3D56"/>
<path d="M200.476 97.5412L244.711 65.799L264.208 69.2095L245.118 102.778C245.118 102.778 200.984 103.135 200.476 97.5412Z" fill="#3F3D56"/>
<path d="M89.1085 78.2567L177.221 53.2642L191.423 56.2666L151.621 74.3753L139.182 88.4512L89.1085 78.2567Z" fill="#3F3D56"/>
<path d="M229.374 115.758C214.136 117.608 193.255 118.264 193.255 118.264C193.255 118.264 85.9083 127.268 5.45436 93.7796C5.45436 93.7796 -6.24787 87.575 4.60781 79.2242L4.64449 79.3784C4.64449 79.3784 22.0045 91.2453 104.95 101.152L229.374 115.758Z" fill="#A39C9C"/>
<path d="M215.212 115.073L254.605 131.341L264.501 130.231L240.939 112.319C240.939 112.319 212.438 106.169 215.212 115.073Z" fill="#3F3D56"/>
<path d="M18.929 81.1164C17.0496 81.1478 12.7435 77.9598 10.0656 75.8136C11.3003 74.6594 12.6347 73.6193 14.0528 72.7056C16.2116 74.3809 20.0521 77.0922 22.1882 76.9866C25.2725 76.8582 21.7593 81.065 18.929 81.1164Z" fill="#A39C9C"/>
<path d="M197.894 171.306L172.602 172.644L101.491 124.149L88.2903 115.145L81.879 110.769C93.9086 100.495 142.989 114.665 142.989 114.665C143.929 115.467 144.228 116.8 144.186 118.273C144.104 121.03 142.823 124.266 142.329 125.43C142.21 125.716 142.137 125.867 142.137 125.867L197.894 171.306Z" fill="#3F3D56"/>
</g>
<defs>
<clipPath id="clip0">
<rect width="300" height="192" fill="white"/>
</clipPath>
</defs>
</svg>
