<svg width="785" height="547" viewBox="0 0 785 547" fill="none" xmlns="http://www.w3.org/2000/svg">
<path d="M256.944 172.364H257.242L257.384 172.103C271.181 146.647 292.446 125.104 318.862 109.831L318.862 109.831C345.662 94.3249 376.81 86.0788 408.629 86.0703C496.898 86.0703 570.41 148.875 577.25 229.436L577.289 229.894H577.748H585.475C644.363 229.894 692.201 273.925 692.201 327.958C692.201 381.991 644.363 426.021 585.475 426.021H231.782C155.714 426.021 93.8994 369.087 93.8994 299.193C93.8994 229.298 155.714 172.364 231.782 172.364H256.944ZM231.782 176.727C158.509 176.727 98.8259 231.626 98.8259 299.193C98.8259 366.759 158.509 421.659 231.782 421.659H585.475C641.567 421.659 687.274 379.664 687.274 327.958C687.274 276.252 641.567 234.257 585.475 234.257H572.661L572.523 232.205C567.164 152.671 495.14 90.4331 408.628 90.4331C346.326 90.4331 288.385 123.797 261.03 175.47L260.365 176.727H231.782Z" fill="#505050" stroke="black"/>
</svg>
